<?xml version="1.0" encoding="utf-8"?>
<!-- Generator: Adobe Illustrator 23.0.3, SVG Export Plug-In . SVG Version: 6.00 Build 0)  -->
<svg version="1.2" baseProfile="tiny" id="icons" xmlns="http://www.w3.org/2000/svg" xmlns:xlink="http://www.w3.org/1999/xlink"
	 x="0px" y="0px" viewBox="0 0 512 512" xml:space="preserve">
<path fill="#590505" d="M456,152c0.1,0,0.1,0,0.2,0c30.8-0.1,55.8-25.2,55.8-56c0-30.9-25.1-56-56-56H56c-30.9,0-56,25.1-56,56
	c0,30.8,25,55.9,55.8,56c0.1,0,0.1,0,0.2,0h56v16H56h0c-30.9,0-56,25.1-56,56c0,30.8,25,55.9,55.8,56c0.1,0,0.1,0,0.2,0h56v184.1
	c0,4.4,3.6,8,8,8h256c0.9,0,1.8-0.2,2.7-0.5c0.1,0,0.2,0,0.3-0.1c1-0.4,2-1.1,2.7-1.8l47.9-47.9c0.7-0.7,1.3-1.6,1.7-2.6
	c0.4-1,0.6-2,0.6-3.1V280h24c30.9,0,56-25.1,56-56s-25.1-56-56-56h-24v-16L456,152L456,152z M416,408h-40c-4.4,0-8,3.6-8,8v40H128
	V152h288V408z M384,424h20.7L384,444.7V424z M16,223.9c0-22.1,17.9-40,40-40s40,17.9,40,40s-17.9,40-40,40S16,246,16,223.9L16,223.9
	z M95.1,264c10.4-10.2,16.9-24.4,16.9-40c0-15.7-6.5-29.8-16.9-40H112v80H95.1z M456,183.9c22.1,0,40,17.9,40,40s-17.9,40-40,40h-24
	v-80L456,183.9z M456,55.9c22.1,0,40,17.9,40,40s-17.9,40-40,40c-0.1,0-0.1,0-0.2,0H95.1c10.4-10.2,16.9-24.4,16.9-40
	c0-15.7-6.5-29.8-16.9-40H456z M16,95.9c0-22.1,17.9-40,40-40s40,17.9,40,40s-17.9,40-40,40S16,118,16,95.9z"/>
<path fill="#590505" d="M80,223.9c0-13.2-10.8-24-24-24s-24,10.8-24,24s10.8,24,24,24S80,237.2,80,223.9z M48,223.9c0-4.4,3.6-8,8-8
	s8,3.6,8,8s-3.6,8-8,8S48,228.4,48,223.9z"/>
<path fill="#590505" d="M80,96c0-13.2-10.8-24-24-24S32,82.7,32,96s10.8,24,24,24S80,109.2,80,96z M48,96c0-4.4,3.6-8,8-8s8,3.6,8,8
	s-3.6,8-8,8S48,100.4,48,96z"/>
<path fill="#590505" d="M176.3,354.3c0.2,0.5,0.4,0.9,0.6,1.4c0.2,0.4,0.5,0.8,0.8,1.2c0.4,0.4,0.7,0.8,1.2,1.2
	c0.2,0.2,0.3,0.4,0.6,0.6c0.3,0.2,0.6,0.2,0.8,0.4c0.3,0.1,0.5,0.3,0.8,0.4c0.9,0.3,1.8,0.6,2.8,0.6h0h192c0.3,0,0.6-0.2,0.9-0.2
	c0.6-0.1,1.1-0.2,1.6-0.3c0.4-0.2,0.8-0.4,1.2-0.6c0.2-0.1,0.4-0.1,0.5-0.2s0.2-0.3,0.4-0.4c0.6-0.4,1-0.9,1.5-1.4
	c0.2-0.3,0.5-0.6,0.6-1c0.3-0.5,0.5-1,0.7-1.6c0.2-0.5,0.2-1,0.3-1.5c0-0.3,0.2-0.5,0.2-0.8c0-0.2-0.1-0.4-0.1-0.7
	c0-0.6-0.2-1.1-0.3-1.7c-0.1-0.5-0.3-0.9-0.5-1.3c-0.1-0.2-0.1-0.5-0.3-0.7l-72-111.9c0,0,0,0-0.1-0.1c-0.3-0.5-0.8-0.8-1.2-1.2
	c-0.4-0.4-0.7-0.8-1.1-1.1c0,0,0-0.1-0.1-0.1c-0.4-0.2-0.8-0.3-1.1-0.4c-0.6-0.2-1.1-0.5-1.7-0.6c-0.5-0.1-1.1,0-1.6,0
	c-0.5,0-1-0.1-1.5,0c-0.6,0.1-1.2,0.4-1.8,0.7c-0.3,0.2-0.7,0.2-1,0.4c0,0,0,0.1-0.1,0.1c-0.4,0.3-0.8,0.7-1.1,1.1
	c-0.4,0.4-0.8,0.7-1.1,1.2c0,0-0.1,0-0.1,0.1l-37.5,58.2l-17.1-26.3c0,0,0,0-0.1-0.1c-0.3-0.4-0.7-0.7-1.1-1.1
	c-0.4-0.4-0.7-0.8-1.2-1.1c0,0,0,0-0.1-0.1c-0.3-0.2-0.7-0.3-1.1-0.4c-0.6-0.3-1.1-0.6-1.8-0.7c-0.5-0.1-1,0-1.5,0s-1-0.1-1.5,0
	c-0.6,0.1-1.2,0.4-1.7,0.7c-0.4,0.2-0.8,0.2-1.1,0.4c0,0,0,0-0.1,0.1c-0.4,0.3-0.8,0.7-1.1,1.1c-0.4,0.4-0.8,0.7-1.1,1.1
	c0,0,0,0-0.1,0.1l-52,80c-0.1,0.2-0.1,0.4-0.2,0.6c-0.3,0.5-0.4,1-0.6,1.5c-0.2,0.5-0.3,1-0.3,1.6c0,0.2-0.1,0.4-0.1,0.7
	c0,0.3,0.1,0.5,0.2,0.8C176,353.2,176.1,353.8,176.3,354.3L176.3,354.3z M266.2,313.2c0.1-0.1,0.2-0.2,0.2-0.4l37.4-58.1l57.4,89.2
	H246.4L266.2,313.2z M227.4,343.9h-28.9l37.3-57.3l14.3,22L227.4,343.9z"/>
<path fill="#590505" d="M199.8,247.8c13.2,0,24-10.8,24-24s-10.8-24-24-24s-24,10.8-24,24S186.6,247.8,199.8,247.8z M199.8,215.8
	c4.4,0,8,3.6,8,8s-3.6,8-8,8s-8-3.6-8-8S195.4,215.8,199.8,215.8z"/>
</svg>
