<?xml version="1.0" encoding="utf-8"?>
<!-- Generator: Adobe Illustrator 23.0.3, SVG Export Plug-In . SVG Version: 6.00 Build 0)  -->
<svg version="1.2" baseProfile="tiny" id="Layer_1" xmlns="http://www.w3.org/2000/svg" xmlns:xlink="http://www.w3.org/1999/xlink"
	 x="0px" y="0px" viewBox="0 0 937.5 937.5" xml:space="preserve">
<g id="surface1">
	<path fill="#595200" d="M93.8,62.5v156.3H125V62.5c0-17.3,14-31.3,31.3-31.3h625c17.3,0,31.3,14,31.3,31.3h31.3
		c0-34.5-28-62.5-62.5-62.5h-625C121.7,0,93.8,28,93.8,62.5z"/>
	<path fill="#595200" d="M62.5,937.5h718.8c34.5,0,62.5-28,62.5-62.5v-62.5h-31.3V875c0,17.3-14,31.3-31.3,31.3S750,892.3,750,875
		v-46.9c0-8.6-7-15.6-15.6-15.6H125V500H93.8v312.5H15.6c-8.6,0-15.6,7-15.6,15.6V875C0,909.5,28,937.5,62.5,937.5z M31.3,843.8
		h687.5V875c0,11,2.9,21.8,8.4,31.3H62.5c-17.3,0-31.3-14-31.3-31.3V843.8z"/>
	<path fill="#595200" d="M15.6,468.8h312.5c8.6,0,15.6-7,15.6-15.6V265.6c0-8.6-7-15.6-15.6-15.6H15.6C7,250,0,257,0,265.6v187.5
		C0,461.8,7,468.8,15.6,468.8z M31.3,281.3h281.3v156.3H31.3V281.3z"/>
	<path fill="#595200" d="M98.3,317.1l-31.3,31.3c-6.1,6.1-6.1,16,0,22.1l31.3,31.3l22.1-22.1l-20.2-20.2l20.2-20.2L98.3,317.1z"/>
	<path fill="#595200" d="M245.4,317.1l-22.1,22.1l20.2,20.2l-20.2,20.2l22.1,22.1l31.3-31.3c6.1-6.1,6.1-16,0-22.1L245.4,317.1z"/>
	<path fill="#595200" d="M141.4,401.3l31.3-93.8l29.7,9.9l-31.3,93.8L141.4,401.3z"/>
	<path fill="#595200" d="M921.9,93.8H390.6c-8.6,0-15.6,7-15.6,15.6v312.5c0,8.6,7,15.6,15.6,15.6h531.3c8.6,0,15.6-7,15.6-15.6
		V109.4C937.5,100.7,930.5,93.8,921.9,93.8z M906.3,406.3h-500v-38L546.6,284l136.8,88.5c4.7,3,10.7,3.3,15.6,0.8l113.1-58.6
		l94.1,53.8V406.3z M906.3,332.5l-85.9-49.1c-4.6-2.6-10.2-2.7-14.9-0.3l-112.6,58.3l-137.3-88.8c-5-3.2-11.4-3.3-16.5-0.3
		l-132.6,79.5V125h500V332.5z"/>
	<path fill="#595200" d="M742.2,265.6c30.2,0,54.7-24.5,54.7-54.7s-24.5-54.7-54.7-54.7s-54.7,24.5-54.7,54.7S712,265.6,742.2,265.6
		z M742.2,187.5c12.9,0,23.4,10.5,23.4,23.4s-10.5,23.4-23.4,23.4s-23.4-10.5-23.4-23.4S729.2,187.5,742.2,187.5z"/>
	<path fill="#595200" d="M156.3,515.6v187.5c0,8.6,7,15.6,15.6,15.6h390.6c8.6,0,15.6-7,15.6-15.6V515.6c0-8.6-7-15.6-15.6-15.6
		H171.9C163.2,500,156.3,507,156.3,515.6z M187.5,531.3h359.4v156.3H187.5V531.3z"/>
	<path fill="#595200" d="M218.8,562.5h62.5v31.3h-62.5V562.5z"/>
	<path fill="#595200" d="M312.5,562.5h140.6v31.3H312.5V562.5z"/>
	<path fill="#595200" d="M484.4,562.5h31.3v31.3h-31.3V562.5z"/>
	<path fill="#595200" d="M218.8,625h187.5v31.3H218.8V625z"/>
	<path fill="#595200" d="M437.5,625h78.1v31.3h-78.1V625z"/>
	<path fill="#595200" d="M156.3,62.5h31.3v31.3h-31.3V62.5z"/>
	<path fill="#595200" d="M218.8,62.5H250v31.3h-31.3V62.5z"/>
	<path fill="#595200" d="M281.3,62.5h31.3v31.3h-31.3V62.5z"/>
	<path fill="#595200" d="M156.3,125h187.5v31.3H156.3V125z"/>
	<path fill="#595200" d="M921.9,562.5H625c-8.6,0-15.6,7-15.6,15.6v187.5c0,8.6,7,15.6,15.6,15.6h296.9c8.6,0,15.6-7,15.6-15.6
		V578.1C937.5,569.5,930.5,562.5,921.9,562.5z M906.3,750H640.6V593.8h265.6V750z"/>
	<path fill="#595200" d="M671.9,625h31.3v31.3h-31.3V625z"/>
	<path fill="#595200" d="M671.9,687.5h31.3v31.3h-31.3V687.5z"/>
	<path fill="#595200" d="M734.4,625H875v31.3H734.4V625z"/>
	<path fill="#595200" d="M734.4,687.5H875v31.3H734.4V687.5z"/>
	<path fill="#595200" d="M812.5,468.8h31.3v62.5h-31.3V468.8z"/>
</g>
</svg>
