<?xml version="1.0" encoding="utf-8"?>
<!-- Generator: Adobe Illustrator 23.0.3, SVG Export Plug-In . SVG Version: 6.00 Build 0)  -->
<svg version="1.2" baseProfile="tiny" id="Layer_1" xmlns="http://www.w3.org/2000/svg" xmlns:xlink="http://www.w3.org/1999/xlink"
	 x="0px" y="0px" viewBox="0 0 496 496" xml:space="preserve">
<path fill="#144003" d="M248,64c-17.6,0-32,14.4-32,32s14.4,32,32,32s32-14.4,32-32S265.6,64,248,64z M248,112c-8.8,0-16-7.2-16-16
	s7.2-16,16-16s16,7.2,16,16S256.8,112,248,112z"/>
<path fill="#144003" d="M343.3,234.6l22.1,22.1c4.7,4.7,11,7.3,17.7,7.3c13.8,0,25-11.2,25-25c0-6.6-2.7-13-7.3-17.7l-22.1-22.1
	c-4.7-4.7-11-7.3-17.7-7.3c-4.8,0-9.2,1.4-13,3.7L330.4,184h-41.5l12-24H352c8.8,0,16-7.2,16-16V40c0-8.8-7.2-16-16-16h-51.7l-16-24
	h-72.6l-16,24H144c-8.8,0-16,7.2-16,16v104c0,8.8,7.2,16,16,16h51.1l12.9,25.9V208h-16v38.2L90,466c-1.3,2.8-2,5.8-2,8.9
	c0,11.6,9.5,21.1,21.1,21.1h2.3c8.4,0,16-5,19.4-12.7l41.7-96.1l51.6,25.8V472c0,13.2,10.8,24,24,24s24-10.8,24-24v-59.1l51.6-25.8
	l41.7,96.1c3.3,7.7,11,12.7,19.4,12.7h2.3c11.6,0,21.1-9.5,21.1-21.1c0-3.1-0.7-6.1-2-8.9L304,246.2V208h-16v-8h37.6l12.1,8.1
	c-1.1,2.8-1.7,5.7-1.7,8.9C336,223.5,338.7,230,343.3,234.6z M200,96c0-26.5,21.5-48,48-48s48,21.5,48,48s-21.5,48-48,48
	S200,122.5,200,96z M144,40h60.3l16-24h55.4l16,24H352v104h-61.8c13.3-11.7,21.8-28.9,21.8-48c0-35.3-28.7-64-64-64s-64,28.7-64,64
	c0,19.1,8.5,36.3,21.8,48H144V40z M283.1,160l-8,16h-54.1l-8-16H283.1z M224,192h16v16h-16V192z M208,224h80v16h-80V224z
	 M116.1,476.9c-0.8,1.9-2.6,3.1-4.7,3.1h-2.3c-2.8,0-5.1-2.3-5.1-5.1c0-0.7,0.2-1.5,0.5-2.2L205.1,256h6.7L116.1,476.9z
	 M178.8,372.4L224,268.1v126.9L178.8,372.4z M248,480c-4.4,0-8-3.6-8-8V256h16v216C256,476.4,252.4,480,248,480z M272,395.1V268.1
	l45.2,104.3L272,395.1z M392,474.9c0,2.8-2.3,5.1-5.1,5.1h-2.3c-2,0-3.9-1.2-4.7-3.1L284.2,256h6.7l100.6,216.8
	C391.8,473.4,392,474.2,392,474.9z M256,208v-16h16v16H256z M367.3,210.6l22.1,22.1c1.7,1.7,2.6,4,2.6,6.3c0,4.9-4,9-9,9
	c-2.4,0-4.6-0.9-6.3-2.6l-22.1-22.1c-1.7-1.7-2.6-4-2.6-6.3c0-4.9,4-9,9-9C363.4,208,365.6,208.9,367.3,210.6z"/>
<path fill="#144003" d="M320,112h16v16h-16V112z"/>
<path fill="#144003" d="M160,112h16v16h-16V112z"/>
<path fill="#144003" d="M94.6,137.9l11.3-11.3L91.3,112H112V96H91.3l14.6-14.6L94.6,70.1L80,84.7V64H64v20.7L49.4,70.1L38.1,81.4
	L52.7,96H32v16h20.7l-14.6,14.6l11.3,11.3L64,123.3V144h16v-20.7L94.6,137.9z M78.6,120H65.4l-9.4-9.4V97.4l9.4-9.4h13.3l9.4,9.4
	v13.3L78.6,120z"/>
<path fill="#144003" d="M464,144h-20.7l14.6-14.6l-11.3-11.3L432,132.7V112h-16v20.7l-14.6-14.6l-11.3,11.3l14.6,14.6H384v16h20.7
	l-14.6,14.6l11.3,11.3l14.6-14.6V192h16v-20.7l14.6,14.6l11.3-11.3L443.3,160H464V144z M440,145.4v13.3l-9.4,9.4h-13.3l-9.4-9.4
	v-13.3l9.4-9.4h13.3L440,145.4z"/>
</svg>
