<?xml version="1.0" encoding="utf-8"?>
<!-- Generator: Adobe Illustrator 23.0.3, SVG Export Plug-In . SVG Version: 6.00 Build 0)  -->
<svg version="1.2" baseProfile="tiny" id="Layer_1" xmlns="http://www.w3.org/2000/svg" xmlns:xlink="http://www.w3.org/1999/xlink"
	 x="0px" y="0px" viewBox="0 0 512 512" xml:space="preserve">
<title>video-maker-Advertisement-advertising-marketing</title>
<g id="Expand">
	<path fill="#003359" d="M472,432h-8V80c0-17.7-14.3-32-32-32H80c-17.7,0-32,14.3-32,32v352h-8c-4.4,0-8,3.6-8,8v24
		c0,17.7,14.3,32,32,32h384c17.7,0,32-14.3,32-32v-24C480,435.6,476.4,432,472,432z M448,384H64V128h384V384z M80,64h352
		c8.8,0,16,7.2,16,16v32H64V80C64,71.2,71.2,64,80,64z M64,400h384v32H328c-2.1,0-4.2,0.8-5.7,2.3L308.7,448H203.3l-13.7-13.7
		c-1.5-1.5-3.5-2.3-5.7-2.3H64V400z M464,464c0,8.8-7.2,16-16,16H64c-8.8,0-16-7.2-16-16v-16h132.7l13.7,13.7
		c1.5,1.5,3.5,2.3,5.7,2.3h112c2.1,0,4.2-0.8,5.7-2.3l13.7-13.7H464V464z"/>
	<rect x="80" y="80" fill="#003359" width="16" height="16"/>
	<rect x="112" y="80" fill="#003359" width="16" height="16"/>
	<rect x="144" y="80" fill="#003359" width="16" height="16"/>
	<path fill="#003359" d="M32,72c0-22.1,17.9-40,40-40h24V16H72c-30.9,0-56,25.1-56,56v80h16V72z"/>
	<rect x="16" y="168" fill="#003359" width="16" height="16"/>
	<rect x="248" y="416" fill="#003359" width="16" height="16"/>
	<rect x="480" y="200" fill="#003359" width="16" height="136"/>
	<rect x="480" y="168" fill="#003359" width="16" height="16"/>
	<rect x="224" y="336" fill="#003359" width="200" height="16"/>
	<path fill="#003359" d="M176,312c44.2,0,80-35.8,80-80s-35.8-80-80-80s-80,35.8-80,80C96,276.2,131.8,312,176,312z M176,168
		c35.3,0,64,28.7,64,64s-28.7,64-64,64s-64-28.7-64-64C112,196.7,140.7,168,176,168z"/>
	<path fill="#003359" d="M147.8,270.8c2.4,1.5,5.3,1.6,7.8,0.4l64-32c4-2,5.6-6.8,3.6-10.7c-0.8-1.6-2-2.8-3.6-3.6l-64-32
		c-4-2-8.8-0.4-10.7,3.6c-0.6,1.1-0.8,2.3-0.8,3.6v64C144,266.8,145.4,269.4,147.8,270.8z M160,212.9l38.1,19.1L160,251.1V212.9z"/>
	<rect x="88" y="328" fill="#003359" width="16" height="32"/>
	<rect x="120" y="328" fill="#003359" width="16" height="32"/>
	<polygon fill="#003359" points="192,336 152,336 152,352 192,352 192,360 208,360 208,328 192,328 	"/>
	<path fill="#003359" d="M304,200h112c4.4,0,8-3.6,8-8v-32c0-4.4-3.6-8-8-8H304c-4.4,0-8,3.6-8,8v32C296,196.4,299.6,200,304,200z
		 M312,168h96v16h-96V168z"/>
	<rect x="320" y="216" fill="#003359" width="16" height="16"/>
	<rect x="352" y="216" fill="#003359" width="72" height="16"/>
	<rect x="296" y="248" fill="#003359" width="128" height="16"/>
	<rect x="296" y="280" fill="#003359" width="104" height="16"/>
</g>
</svg>
